<svg width="426" height="79" viewBox="0 0 426 79" fill="none" xmlns="http://www.w3.org/2000/svg">
<path d="M41.6591 2.22088C43.9951 2.22088 46.3312 2.4747 48.5374 2.85542C44.9036 1.6498 41.0102 0.951807 36.9222 0.951807C26.9941 0.951807 17.9744 4.88594 11.4855 11.2313C4.9965 17.5767 0.973343 26.3968 0.973343 36.1052C0.973343 40.2932 1.75202 44.2908 3.1147 48.0345C2.59558 45.6233 2.33602 43.1486 2.33602 40.6104C2.33602 19.4169 19.9211 2.22088 41.6591 2.22088ZM62.3589 60.9791C68.8478 54.6337 72.871 45.8137 72.871 36.1052C72.871 31.9173 72.0923 27.9197 70.7296 24.1759C69.2372 21.7012 67.4852 19.3534 65.4087 17.3229C59.3091 11.4217 50.9383 7.74137 41.6591 7.74137C32.3799 7.74137 23.9443 11.4217 17.9095 17.3863C11.745 23.2875 8.04631 31.5365 8.04631 40.6104C8.04631 49.6843 11.8099 57.9333 17.9095 63.8345C20.1807 66.0554 22.7113 67.8956 25.5016 69.4185C29.1354 70.6241 32.9639 71.2586 36.9222 71.2586C46.8503 71.3221 55.8699 67.388 62.3589 60.9791ZM65.4087 63.8345C71.5083 57.8699 75.2719 49.6843 75.2719 40.6104C75.2719 36.6129 74.4932 32.8056 73.1954 29.2522C73.6497 31.4731 73.9092 33.7574 73.9092 36.1052C73.9092 56.0297 57.3624 72.2104 36.9871 72.2104C34.8457 72.2104 32.7692 72.0201 30.6928 71.6394C34.1319 72.7815 37.8306 73.4795 41.724 73.4795C50.9383 73.4795 59.3091 69.7992 65.4087 63.8345ZM80.9173 40.6104C80.9173 61.804 63.3322 79 41.6591 79C24.7878 79 10.3823 68.5301 4.86672 53.9357C1.75202 48.6691 0 42.5775 0 36.1052C0 16.1807 16.5468 0 36.9222 0C43.2813 0 49.3161 1.58635 54.5072 4.37831C69.8861 9.58153 80.9173 23.7952 80.9173 40.6104Z" fill="white"/>
<path d="M129.776 35.6608V34.8994V34.1379V33.6303V33.1227C129.776 32.5516 129.776 32.0439 129.776 31.5363C129.711 31.0287 129.646 30.4576 129.452 29.8865C129.127 28.9981 128.608 28.1732 127.959 27.4753C127.31 26.7773 126.467 26.2696 125.558 25.8889C124.78 25.5716 123.936 25.3813 123.157 25.3178C122.314 25.2544 121.535 25.1909 120.757 25.1909H117.123H115.89C115.501 25.1909 115.111 25.2544 114.787 25.3813C114.462 25.5082 114.203 25.6985 114.008 26.0158C113.813 26.3331 113.748 26.7773 113.748 27.3483V28.1732L113.813 28.9981V29.7596V30.521V31.0921L113.748 31.6632L113.684 32.2978V32.9957V52.6664C113.684 53.1106 113.813 53.5548 114.008 53.8721C114.203 54.2528 114.657 54.4431 115.241 54.4431C115.695 54.4431 116.02 54.3162 116.214 54.1259C116.474 53.9355 116.604 53.6182 116.669 53.301C116.733 52.9837 116.798 52.603 116.798 52.2223C116.798 51.8415 116.798 51.5243 116.798 51.1435V50.6359V49.8745V49.113C116.733 48.6054 116.733 48.0978 116.733 47.5901C116.733 47.0825 116.733 46.5749 116.863 46.1307V45.9403V45.6865H118.94C119.394 45.6865 119.913 45.6865 120.367 45.6865C120.821 45.6865 121.341 45.6865 121.795 45.6865L122.379 46.0672L122.703 46.8921C122.833 47.2729 122.963 47.5901 123.093 47.8439L123.028 47.7805L123.677 48.9861V48.9227C123.806 49.3668 123.936 49.7476 124.131 50.0648C124.261 50.3821 124.455 50.6994 124.585 51.0166C124.78 51.3339 124.909 51.6512 125.039 51.905L125.364 52.5395C125.493 52.9203 125.688 53.2375 125.883 53.6182C126.078 53.999 126.402 54.2528 126.856 54.3797L126.791 54.3162L127.116 54.4431H127.375C127.83 54.4431 128.154 54.3162 128.349 54.0624C128.543 53.8086 128.673 53.4913 128.673 53.1106C128.673 52.603 128.543 52.0319 128.284 51.5243C128.024 51.0166 127.765 50.509 127.505 50.0648C127.181 49.6207 127.051 49.3668 126.986 49.2399L126.921 49.113L126.791 48.9227L126.597 48.6054L126.532 48.4785L126.467 48.3516C126.337 48.0343 126.207 47.7805 126.078 47.4632L125.753 46.7652L125.493 46.2576L125.299 45.8134L125.104 45.3058L125.623 45.1789C125.818 45.1789 126.078 45.052 126.402 44.8616L126.337 44.9251C127.116 44.5443 127.7 44.1002 128.219 43.5925C128.673 43.0849 129.062 42.4504 129.257 41.7524C129.517 41.0544 129.646 40.4198 129.711 39.6584C129.776 38.9604 129.841 38.199 129.841 37.501V36.6126C129.841 36.2319 129.776 35.9146 129.776 35.6608ZM126.791 37.7548C126.791 39.6584 126.337 40.9275 125.429 41.6889C124.52 42.3869 123.157 42.7676 121.341 42.7676H120.108C119.653 42.7042 119.199 42.7042 118.745 42.7676C118.291 42.7676 117.772 42.7676 117.317 42.7676H116.669C116.733 42.3235 116.798 41.9427 116.798 41.7524V40.7371C116.798 40.2295 116.798 39.7219 116.798 39.1508C116.798 38.6431 116.798 38.0721 116.798 37.5644C116.798 37.0568 116.733 36.5492 116.733 36.0415V34.4552V31.9805C116.733 31.5363 116.733 31.1556 116.733 30.7114C116.733 30.2672 116.733 29.823 116.733 29.3789V28.8712V28.3636V28.2367V28.1098H117.577H118.161H118.745L119.329 28.1732H119.978H120.627L121.276 28.1098L121.925 28.0463H122.509C123.741 28.0463 124.715 28.4271 125.623 29.1885C126.467 29.95 126.921 30.9018 126.921 32.1074C126.921 32.615 126.921 33.0592 126.921 33.5668C126.921 34.0745 126.921 34.5186 126.921 34.9628V37.7548H126.791Z" fill="white"/>
<path d="M145.285 28.6179C145.35 28.3006 145.35 28.0468 145.35 27.7295V26.9046L145.22 26.397L144.961 25.8894L144.441 25.3817L143.663 25.1279C143.273 25.1279 142.949 25.2548 142.754 25.4452C142.56 25.6356 142.43 25.8894 142.3 26.2066C142.235 26.5239 142.17 26.8412 142.17 27.1585V28.0468V28.3006V28.8717V29.5062L142.235 30.0773V30.585C142.235 31.0291 142.235 31.6637 142.235 32.3617C142.235 33.1231 142.235 33.6942 142.235 34.1384C142.17 34.7095 142.17 35.344 142.17 35.9151V37.6918V39.8492C142.17 40.6107 142.17 41.3721 142.235 42.0066C142.235 42.7046 142.235 43.4661 142.235 44.1641C142.235 44.8621 142.235 45.6235 142.235 46.3215C142.235 46.8291 142.235 47.3368 142.235 47.8444C142.235 48.352 142.17 48.7962 142.17 49.3038C142.17 49.8115 142.105 50.3191 142.105 50.8267V52.3496C142.105 52.7938 142.235 53.3014 142.43 53.7456C142.689 54.2532 143.144 54.507 143.793 54.507L144.506 54.2532L144.961 53.6187L145.155 52.8572L145.22 52.2227V35.8516C145.22 35.4074 145.22 34.9633 145.22 34.5191C145.22 34.0749 145.22 33.6307 145.22 33.1866C145.155 32.7424 145.155 32.2348 145.155 31.7906V30.3946V29.5697C145.22 29.189 145.285 28.9352 145.285 28.6179Z" fill="white"/>
<path d="M174.686 51.2074C174.686 50.6998 174.686 50.2556 174.686 50.0018C174.686 48.4155 174.686 46.8291 174.686 45.3062C174.686 43.7834 174.686 42.2605 174.686 40.7376V26.7777C174.686 26.397 174.621 26.0797 174.556 25.699C174.426 25.3183 174.102 25.1279 173.453 25.1279C172.869 25.1279 172.415 25.3183 172.09 25.699C171.766 26.0797 171.571 26.5239 171.571 27.095V27.7295L171.636 28.3006L171.701 28.8717V29.3793C171.701 29.8235 171.701 30.3311 171.701 30.9657C171.701 31.6002 171.701 32.1078 171.701 32.552C171.701 33.1231 171.636 33.6307 171.636 34.1384V35.7247V37.1207C171.636 37.6283 171.636 38.0725 171.701 38.5167C171.766 38.9609 171.766 39.405 171.766 39.8492C171.766 40.2934 171.766 40.7376 171.766 41.1817C171.766 41.6894 171.766 42.3239 171.766 43.1488C171.766 43.9737 171.766 44.6717 171.766 45.1159L171.701 45.9408V46.7657C171.506 46.385 171.312 45.9408 171.052 45.4966C170.793 45.0524 170.533 44.4813 170.273 43.9737L170.144 43.7834L169.949 43.4661L169.689 43.0219L169.495 42.5777L168.911 41.3087V41.3721L168.781 40.9914L168.651 40.801L168.716 40.9279C168.262 40.103 167.808 39.2147 167.418 38.3263C167.029 37.438 166.575 36.6131 166.121 35.7247C165.666 34.7095 165.147 33.6307 164.563 32.552C164.044 31.4733 163.46 30.3946 162.876 29.3793L161.643 27.095V27.2219C161.513 26.8412 161.254 26.397 160.929 25.9528C160.605 25.5087 160.151 25.2548 159.502 25.2548C159.177 25.2548 158.983 25.3183 158.788 25.5087L158.334 26.0797L158.139 26.7777L158.074 27.4123V42.2605C158.074 43.2123 158.074 44.1641 158.074 45.1159C158.074 46.0677 158.074 47.0195 158.074 47.9713V53.1111L158.139 53.6187L158.399 54.2532L158.853 54.7609L159.437 55.0147C159.891 55.0147 160.216 54.8243 160.475 54.4436C160.735 54.0629 160.929 53.5552 160.994 53.0476C161.124 52.4765 161.124 51.9054 161.124 51.2709V49.4942V48.9231C161.124 48.5424 161.124 48.1617 161.124 47.7809C161.124 47.4002 161.059 47.0195 161.059 46.5753C160.994 46.1946 160.994 45.8773 160.994 45.4966V44.3544V40.9279C160.994 39.7858 160.994 38.6436 161.059 37.5014C161.059 36.74 161.059 35.9151 161.059 35.1536C161.059 34.3922 161.124 33.5673 161.124 32.8058L161.319 33.1866V33.1231L161.643 33.8846C162.162 34.9633 162.681 36.042 163.265 37.2476C163.849 38.3898 164.433 39.5319 165.147 40.6741C165.407 41.1183 165.666 41.6259 165.926 42.1336C166.185 42.6412 166.445 43.1488 166.705 43.6564C167.159 44.6717 167.613 45.5601 168.067 46.385L169.105 48.4155H169.17L169.819 49.6211C170.079 50.1287 170.338 50.6364 170.598 51.144C170.857 51.6516 170.987 51.9054 170.987 51.9689C171.117 52.0958 171.247 52.2862 171.441 52.6034C171.636 52.9207 171.896 53.238 172.155 53.5552C172.415 53.8725 172.674 54.1263 172.999 54.3801L173.777 54.7609C174.037 54.7609 174.232 54.5705 174.426 54.1898C174.556 53.8091 174.686 53.3649 174.751 52.7938C174.621 52.2862 174.686 51.7785 174.686 51.2074Z" fill="white"/>
<path d="M206.609 42.3873V41.8797C206.609 41.3086 206.479 40.801 206.285 40.2299C206.025 39.6588 205.506 39.405 204.727 39.405H200.639H200.185H199.796L199.277 39.4684H198.952H198.174L197.395 39.5954L196.746 39.9761C196.551 40.1664 196.486 40.4202 196.486 40.7375C196.486 41.2451 196.681 41.6893 197.006 42.0066C197.33 42.3239 197.784 42.5142 198.368 42.5142H198.628L198.887 42.4508C199.147 42.4508 199.406 42.4508 199.796 42.4508C200.185 42.4508 200.574 42.3873 200.964 42.3873C201.353 42.3873 201.807 42.3873 202.197 42.3873H203.3L203.235 43.0219L203.3 43.8468C203.3 44.2275 203.3 44.7351 203.235 45.2427C203.17 45.7504 203.17 46.3215 203.04 46.8925C202.975 47.4636 202.846 47.9713 202.651 48.4789C202.456 48.9865 202.262 49.4307 202.002 49.748C201.223 50.5094 200.315 50.9536 199.212 51.1439C198.109 51.3343 197.006 51.3978 195.902 51.3978C194.605 51.3978 193.566 51.2074 192.788 50.8267C192.009 50.446 191.425 49.9383 191.036 49.3038C190.646 48.6692 190.387 47.8443 190.257 46.956C190.127 46.0676 190.062 45.0524 190.062 43.9737V43.0219C190.062 42.7046 190.062 42.3873 190.127 42.0066C190.127 41.6259 190.127 41.3086 190.127 40.9913C190.127 40.6741 190.127 40.2933 190.127 39.9761V37.311C190.127 36.8668 190.127 36.4227 190.127 35.915C190.127 35.4709 190.127 35.0267 190.127 34.519V33.8211C190.127 33.3134 190.127 32.8692 190.127 32.4251C190.127 31.9809 190.192 31.5367 190.322 31.156C190.452 30.7753 190.646 30.3945 190.841 30.0138C191.036 29.6966 191.425 29.3158 191.814 28.9986L191.879 28.9351C191.879 28.9351 191.879 28.9351 191.814 28.9986C192.463 28.5544 193.177 28.2371 193.956 28.0468C194.734 27.8564 195.513 27.7929 196.292 27.7929C196.941 27.7929 197.654 27.8564 198.303 27.9199C198.952 27.9833 199.601 28.1737 200.185 28.4275C200.769 28.6813 201.288 28.9986 201.742 29.3793C202.197 29.76 202.586 30.3311 202.846 30.9022V31.0291V31.3464C202.846 31.854 202.975 32.3616 203.105 32.8692C203.235 33.3769 203.689 33.6307 204.403 33.6307C204.792 33.6307 205.182 33.4403 205.506 32.9962C205.831 32.552 205.96 32.1713 205.96 31.7905C205.96 31.3464 205.831 30.9022 205.636 30.3945V30.458L205.571 30.1407C205.376 29.4427 205.117 28.8717 204.727 28.3006C204.338 27.7295 203.819 27.2853 203.3 26.8411C202.781 26.397 202.132 26.0797 201.483 25.8259C200.834 25.5721 200.185 25.3817 199.536 25.2548H199.601C199.082 25.0644 198.498 25.001 197.914 25.001C197.33 25.001 196.681 25.001 196.097 25.001C194.994 25.001 193.956 25.1279 192.853 25.3817C191.75 25.6355 190.776 26.0797 189.933 26.7142C188.83 27.5391 188.116 28.6813 187.597 29.9504C187.142 31.2829 186.883 32.6154 186.883 33.948V34.3921L186.948 34.8363V35.1536V35.4709V45.3062C186.948 45.9407 187.013 46.6387 187.077 47.2733C187.142 47.9713 187.272 48.6058 187.467 49.2403C187.661 49.8749 187.921 50.5094 188.245 51.0805C188.57 51.6516 189.024 52.1592 189.543 52.6034C190.517 53.3648 191.555 53.8725 192.723 54.0628C193.891 54.3166 194.994 54.3801 196.162 54.3801C196.681 54.3801 197.395 54.3801 198.238 54.3166C199.082 54.2532 199.731 54.1897 200.315 53.9994L200.639 53.8725L200.964 53.6821L201.288 53.5552C202.716 52.9207 203.754 52.0957 204.533 51.2074C205.311 50.319 205.831 49.05 206.155 47.4636C206.22 47.0829 206.285 46.6387 206.285 46.1945C206.285 45.7504 206.285 45.3062 206.285 44.862V43.5929V43.2757L206.35 42.8949L206.609 42.3873Z" fill="white"/>
<path d="M221.6 44.6718V41.5625C221.6 40.4204 221.6 39.4051 221.665 38.4533C221.729 37.3746 221.73 36.3593 221.73 35.344C221.73 34.3288 221.73 33.2501 221.73 32.2348C221.73 31.9175 221.73 31.6003 221.73 31.283C221.73 30.9657 221.665 30.585 221.665 30.2677C221.665 29.9505 221.6 29.6332 221.6 29.3159V28.3007V27.8565L221.73 27.0316C221.73 26.5874 221.535 26.1432 221.21 25.826C220.886 25.4452 220.432 25.2549 219.977 25.2549C219.653 25.2549 219.393 25.4452 219.199 25.7625C219.004 26.0798 218.874 26.4605 218.809 26.9681C218.745 27.4123 218.68 27.9199 218.68 28.3641V29.6332V46.3216C218.68 47.1465 218.68 48.0348 218.68 48.8597C218.68 49.6846 218.68 50.573 218.68 51.3979V52.3497C218.68 52.7304 218.68 53.0477 218.809 53.3649C218.874 53.6822 219.004 53.9995 219.199 54.1898C219.393 54.4437 219.653 54.5706 220.042 54.5706C220.626 54.5706 221.081 54.3167 221.405 53.8091C221.665 53.3015 221.859 52.7939 221.859 52.3497V51.7786L221.794 51.2075L221.73 50.6999V50.1288V44.6718H221.6Z" fill="white"/>
<path d="M270.719 53.0476V52.5399L270.589 51.7785L270.329 51.017L270.135 50.446C269.94 49.9383 269.745 49.3672 269.486 48.6692C269.226 47.9713 269.032 47.2098 268.772 46.4484C268.513 45.6869 268.318 44.9255 268.123 44.164C267.929 43.4026 267.734 42.7046 267.539 42.0701C267.28 41.1182 266.955 40.0395 266.631 38.8339C266.306 37.6283 265.917 36.4861 265.528 35.3439C265.203 34.519 264.944 33.6307 264.749 32.7423C264.489 31.854 264.295 30.9656 263.97 30.0773L263.192 27.4122L262.932 26.6508L262.478 25.8893L261.829 25.2548C261.569 25.0644 261.31 25.001 260.921 25.001C260.596 25.001 260.272 25.0644 260.077 25.2548L259.493 25.8893L259.104 26.6508L258.909 27.4122C258.714 28.4275 258.455 29.5062 258.13 30.7118C257.806 31.9174 257.481 32.9327 257.157 33.8845C256.962 34.3287 256.833 34.7729 256.703 35.217C256.573 35.6612 256.378 36.0419 256.249 36.4861C255.794 37.9456 255.34 39.405 254.951 40.801C254.561 42.197 254.107 43.6564 253.653 45.1158L253.718 45.0524L253.134 47.0194C253.004 47.4002 252.874 47.7809 252.745 48.2251C252.615 48.6692 252.485 49.05 252.42 49.4307C252.29 49.8749 252.161 50.2556 252.096 50.6998C252.031 51.0805 251.901 51.5247 251.706 51.9688L251.771 51.8419C251.577 52.0957 251.512 52.413 251.512 52.7937C251.512 53.2379 251.641 53.6186 251.966 53.8725C252.29 54.1263 252.68 54.3166 253.134 54.3166C253.588 54.3166 253.977 54.1897 254.237 53.8725C254.497 53.5552 254.626 53.2379 254.691 52.9207C254.886 52.2227 255.016 51.5247 255.21 50.8901C255.405 50.1921 255.6 49.5576 255.859 48.8596L256.508 46.8291L257.287 43.8468C257.481 43.466 257.611 43.1488 257.676 42.8315L257.871 42.0066L258.065 41.2451L258.26 40.4837L259.493 36.4227C259.753 35.4709 260.012 34.519 260.272 33.6307C260.531 32.7423 260.791 31.854 261.115 30.9022V31.0925H261.18L261.505 32.0443C261.764 32.9327 262.024 33.8211 262.283 34.7094C262.543 35.5978 262.867 36.4861 263.127 37.311C263.321 37.9456 263.516 38.5166 263.711 39.1512C263.905 39.7223 264.035 40.3568 264.23 40.9913V41.1182L264.36 41.4355C264.425 41.5624 264.489 41.7528 264.619 42.0701V41.8797C264.749 42.197 264.814 42.5142 264.944 42.8315C265.073 43.1488 265.138 43.4026 265.203 43.7198L265.982 46.7022C266.047 47.1464 266.177 47.5905 266.371 48.1616C266.566 48.7327 266.761 49.2403 267.02 49.8114C267.215 50.1921 267.345 50.5094 267.474 50.8901C267.604 51.2708 267.734 51.715 267.864 52.2227L268.123 52.8572L268.577 53.5552L269.161 54.1263L269.875 54.3801L270.524 54.1897L270.848 53.7455L270.719 53.0476Z" fill="white"/>
<path d="M298.103 35.6608V34.8994V34.1379V33.6303V33.1227C298.103 32.5516 298.103 32.0439 298.103 31.5363C298.103 31.0287 297.973 30.4576 297.778 29.8865C297.454 28.9981 296.935 28.1732 296.286 27.4753C295.637 26.7773 294.858 26.2696 293.885 25.8889C293.106 25.5716 292.263 25.3813 291.419 25.3178C290.576 25.2544 289.797 25.1909 289.018 25.1909H285.384H284.152C283.762 25.1909 283.373 25.2544 283.048 25.3813C282.724 25.5082 282.464 25.6985 282.27 26.0158C282.075 26.3331 282.01 26.7773 282.01 27.3483V28.1732L282.075 28.9981V29.7596V30.521V31.0921L282.01 31.6632L281.945 32.2978V32.9957V52.6664C281.945 53.1106 282.075 53.5548 282.27 53.8721C282.464 54.2528 282.919 54.4431 283.503 54.4431C283.957 54.4431 284.281 54.3162 284.476 54.1259C284.736 53.9355 284.865 53.6182 284.93 53.301C284.995 52.9837 285.06 52.603 285.06 52.2223C285.06 51.8415 285.06 51.5243 285.06 51.1435V50.6359V49.8745V49.113C284.995 48.6054 284.995 48.0978 284.995 47.5901C284.995 47.0825 284.995 46.5749 285.125 46.1307V45.9403V45.6865H287.201C287.656 45.6865 288.175 45.6865 288.629 45.6865C289.083 45.6865 289.602 45.6865 290.056 45.6865L290.64 46.0672L290.965 46.8921C291.095 47.2729 291.224 47.5901 291.354 47.8439L291.289 47.7805L291.938 48.9861V48.9227C292.068 49.3668 292.198 49.7476 292.392 50.0648C292.522 50.3821 292.717 50.6994 292.847 51.0166C293.041 51.3339 293.171 51.6512 293.301 51.905L293.625 52.5395C293.755 52.9203 293.95 53.2375 294.144 53.6182C294.339 53.999 294.664 54.2528 295.118 54.3797L295.053 54.3162L295.377 54.4431H295.637C296.091 54.4431 296.416 54.3162 296.61 54.0624C296.805 53.8086 296.935 53.4913 296.935 53.1106C296.935 52.603 296.805 52.0319 296.545 51.5243C296.286 51.0166 296.026 50.509 295.767 50.0648C295.442 49.6207 295.312 49.3668 295.248 49.2399L295.183 49.113L295.053 48.9227L294.858 48.6054L294.793 48.4785L294.728 48.3516C294.599 48.0343 294.469 47.7805 294.339 47.4632L294.015 46.7652L293.755 46.2576L293.496 45.8134L293.301 45.3058L293.95 45.052C294.144 45.052 294.404 44.9251 294.728 44.7347L294.664 44.7982C295.442 44.4174 296.026 43.9733 296.545 43.4656C297 42.958 297.389 42.3235 297.584 41.6255C297.843 40.9275 297.973 40.2929 298.038 39.5315C298.103 38.8335 298.168 38.0721 298.168 37.3741V36.4857C298.168 36.2319 298.103 35.9146 298.103 35.6608ZM295.118 37.7548C295.118 39.6584 294.664 40.9275 293.755 41.6889C292.847 42.3869 291.484 42.7676 289.667 42.7676H288.434C287.98 42.7042 287.526 42.7042 287.072 42.7676C286.617 42.7676 286.098 42.7676 285.644 42.7676H284.995C285.06 42.3235 285.125 41.9427 285.125 41.7524V40.7371C285.125 40.2295 285.125 39.7219 285.125 39.1508C285.125 38.6431 285.125 38.0721 285.125 37.5644C285.125 37.0568 285.06 36.5492 285.06 36.0415V34.4552V31.9805C285.06 31.5363 285.06 31.1556 285.06 30.7114C285.06 30.2672 285.06 29.823 285.06 29.3789V28.8712V28.3636V28.2367V28.1098H285.904H286.488H287.072L287.656 28.1732H288.304H288.953L289.602 28.1098L290.251 28.0463H290.835C292.068 28.0463 293.041 28.4271 293.885 29.1885C294.728 29.95 295.183 30.9018 295.183 32.1074C295.183 32.615 295.183 33.0592 295.183 33.5668C295.183 34.0745 295.183 34.5186 295.183 34.9628V37.7548H295.118Z" fill="white"/>
<path d="M313.609 28.6179C313.609 28.3006 313.674 28.0468 313.674 27.7295V26.9046L313.545 26.397L313.285 25.8894L312.766 25.3817L311.987 25.1279C311.598 25.1279 311.273 25.2548 311.079 25.4452C310.884 25.6356 310.754 25.8894 310.624 26.2066C310.559 26.5239 310.495 26.8412 310.495 27.1585V28.0468V28.3006V28.8717V29.5062L310.559 30.0773V30.585C310.559 31.0291 310.559 31.6637 310.559 32.3617C310.559 33.1231 310.559 33.6942 310.559 34.1384C310.559 34.7095 310.495 35.344 310.495 35.9151V37.6918V39.8492C310.495 40.6107 310.495 41.3721 310.559 42.0066C310.559 42.7046 310.559 43.4661 310.559 44.1641C310.559 44.8621 310.559 45.6235 310.559 46.3215C310.559 46.8291 310.559 47.3368 310.559 47.8444C310.559 48.352 310.495 48.7962 310.495 49.3038C310.495 49.8115 310.43 50.3191 310.43 50.8267V52.3496C310.43 52.7938 310.559 53.3014 310.754 53.7456C311.014 54.2532 311.468 54.507 312.117 54.507L312.831 54.2532L313.285 53.6187L313.48 52.8572L313.545 52.2227V35.8516C313.545 35.4074 313.545 34.9633 313.545 34.5191C313.545 34.0749 313.545 33.6307 313.545 33.1866C313.545 32.7424 313.48 32.2348 313.48 31.7906V30.3946V29.5697C313.545 29.189 313.609 28.9352 313.609 28.6179Z" fill="white"/>
<path d="M340.412 26.968C338.984 25.699 336.778 25.0644 333.663 25.1279L326.72 25.1913C326.331 25.699 326.201 26.1431 326.266 26.6508C326.331 27.0949 326.396 27.5391 326.396 27.9198V28.1737V28.9986C326.396 29.3158 326.396 29.5696 326.461 29.8235V30.458V30.6484V30.9022V31.2194V32.9961C326.461 33.5672 326.461 34.2018 326.396 34.7729V35.4708V35.9785V36.5496V38.2628V38.8339L326.461 39.3415V39.6588V39.7857V39.9126V52.9841L326.59 53.4917C326.655 53.809 326.72 53.9994 326.85 54.1897C326.98 54.3801 327.304 54.4435 327.823 54.4435L328.602 54.1897L329.121 53.6821L329.381 52.8572L329.51 52.2861V51.8419L329.446 51.3978L329.316 50.8267C329.251 50.1287 329.251 49.3672 329.251 48.4789V46.1311V45.8138H332.69H332.885H333.144C334.053 45.8138 334.961 45.7504 335.935 45.6869C336.908 45.56 337.687 45.4331 338.336 45.1793C339.763 44.5447 340.736 43.5929 341.385 42.3239C342.034 41.0548 342.359 39.7223 342.359 38.2628V33.25C342.488 30.3311 341.775 28.2371 340.412 26.968ZM339.439 34.8998V38.2628C339.439 39.405 339.244 40.2933 338.855 40.9279C338.465 41.5624 337.946 42.0066 337.297 42.3239C336.648 42.6411 335.87 42.768 335.026 42.8315C334.183 42.8949 333.209 42.8949 332.301 42.8949H332.106H331.911H329.381V40.8644V40.2933V39.6588L329.446 28.364L330.419 28.1737L330.873 28.2371H331.198H332.366H334.118C334.702 28.2371 335.286 28.3006 335.87 28.364C336.454 28.4275 336.973 28.6178 337.492 28.8082C338.011 28.9986 338.465 29.3158 338.855 29.76C338.984 29.9504 339.114 30.2042 339.179 30.6484C339.244 31.0925 339.309 31.5367 339.374 32.0443C339.439 32.552 339.439 33.0596 339.439 33.5672V34.8998Z" fill="white"/>
<path d="M396.798 35.6608V34.8994V34.1379V33.6303V33.1227C396.863 32.5516 396.863 32.0439 396.798 31.5363C396.733 31.0287 396.668 30.4576 396.474 29.8865C396.149 28.9981 395.63 28.1732 394.981 27.4753C394.332 26.7773 393.489 26.2696 392.58 25.8889C391.802 25.5716 390.958 25.3813 390.115 25.3178C389.271 25.2544 388.492 25.1909 387.714 25.1909H384.08H382.847C382.458 25.1909 382.068 25.2544 381.744 25.3813C381.419 25.5082 381.16 25.6985 380.965 26.0158C380.77 26.3331 380.706 26.7773 380.706 27.3483V28.1732L380.77 28.9981V29.7596V30.521V31.0921L380.706 31.6632L380.641 32.2978V32.9957V52.6664C380.641 53.1106 380.77 53.5548 380.965 53.8721C381.16 54.2528 381.614 54.4431 382.198 54.4431C382.652 54.4431 382.977 54.3162 383.171 54.1259C383.431 53.9355 383.561 53.6182 383.626 53.301C383.69 52.9837 383.755 52.603 383.755 52.2223C383.755 51.8415 383.755 51.5243 383.755 51.1435V50.6359V49.8745V49.113C383.69 48.6054 383.69 48.0978 383.69 47.5901C383.69 47.0825 383.69 46.5749 383.82 46.1307V45.9403V45.6865H385.897C386.351 45.6865 386.87 45.6865 387.324 45.6865C387.779 45.6865 388.298 45.6865 388.752 45.6865L389.336 46.0672L389.66 46.8921C389.79 47.2729 389.92 47.5901 390.05 47.8439L389.985 47.7805L390.634 48.9861V48.9227C390.763 49.3668 390.893 49.7476 391.088 50.0648C391.218 50.3821 391.412 50.6994 391.542 51.0166C391.737 51.3339 391.867 51.6512 391.996 51.905L392.321 52.5395C392.451 52.9203 392.645 53.2375 392.84 53.6182C393.035 53.999 393.359 54.2528 393.813 54.3797L393.748 54.3162L394.073 54.4431H394.332C394.787 54.4431 395.111 54.3162 395.306 54.0624C395.5 53.8086 395.63 53.4913 395.63 53.1106C395.63 52.603 395.5 52.0319 395.241 51.5243C394.981 51.0166 394.722 50.509 394.462 50.0648C394.138 49.6207 394.008 49.3668 393.943 49.2399L393.878 49.113V48.8592L393.683 48.5419L393.619 48.415L393.554 48.2881C393.424 47.9709 393.294 47.717 393.164 47.3998L392.84 46.7018L392.58 46.1941L392.321 45.75L392.126 45.2423L392.645 45.1154C392.84 45.1154 393.099 44.9885 393.424 44.7982L393.359 44.8616C394.138 44.4809 394.722 44.0367 395.241 43.5291C395.695 43.0215 396.084 42.3869 396.279 41.6889C396.539 40.9909 396.668 40.3564 396.733 39.5949C396.798 38.897 396.863 38.1355 396.863 37.4375V36.5492C396.863 36.2319 396.863 35.9146 396.798 35.6608ZM393.878 37.7548C393.878 39.6584 393.424 40.9275 392.515 41.6889C391.607 42.3869 390.244 42.7676 388.427 42.7676H387.259C386.805 42.7042 386.351 42.7042 385.897 42.7676C385.442 42.7676 384.923 42.7676 384.469 42.7676H383.82C383.885 42.3235 383.95 41.9427 383.95 41.7524V40.7371C383.95 40.2295 383.95 39.7219 383.95 39.1508C383.95 38.6431 383.95 38.0721 383.95 37.5644C383.885 37.0568 383.885 36.5492 383.885 36.0415V34.4552V31.9805C383.885 31.5363 383.885 31.1556 383.885 30.7114C383.885 30.2672 383.885 29.823 383.885 29.3789V28.8712V28.3636V28.2367V28.1098H384.729H385.313H385.897L386.481 28.1732H387.13H387.778L388.427 28.1098L389.076 28.0463H389.66C390.893 28.0463 391.867 28.4271 392.775 29.1885C393.619 29.95 394.073 30.9018 394.073 32.1074C394.073 32.615 394.073 33.0592 394.073 33.5668C394.073 34.0745 394.073 34.5186 394.073 34.9628V37.7548H393.878Z" fill="white"/>
<path d="M421.327 40.7373C420.484 38.8972 419.705 36.9301 418.991 34.8996L419.056 34.7092L419.186 34.6458L419.51 34.3285L425.415 26.4602L425.48 26.143V25.8257C425.48 25.445 425.35 25.1277 425.091 24.8739C424.831 24.6201 424.507 24.4932 424.118 24.4932C423.534 24.4932 423.079 24.6835 422.755 25.0642C422.43 25.445 422.106 25.8257 421.846 26.2064L421.587 26.5871L421.133 27.0948L420.938 27.3486L420.613 27.7928V27.7293C419.965 28.6177 419.251 29.5695 418.537 30.5847C417.823 31.6 417.109 32.5518 416.396 33.3767C415.877 34.0112 415.422 34.5823 414.903 35.2169C414.449 35.8514 413.93 36.4225 413.476 37.1205L412.178 38.9606C412.178 38.3896 412.178 37.6916 412.178 36.7398C412.178 35.8514 412.178 34.5823 412.178 32.9325V30.6482C412.178 29.8867 412.178 29.1887 412.178 28.6177C412.178 27.9831 412.178 27.5389 412.113 27.1582C412.113 26.7775 412.113 26.5871 412.113 26.5237C411.918 26.143 411.724 25.8257 411.464 25.5084C411.204 25.2546 410.88 25.0642 410.556 25.0642C410.231 25.0642 409.972 25.1277 409.777 25.2546L409.388 25.8257L409.258 26.5237V27.1582V28.8715C409.258 29.4426 409.258 30.0136 409.323 30.4578C409.323 31.0289 409.323 31.5365 409.323 32.0442C409.323 32.5518 409.323 33.0594 409.323 33.5671V49.8112V50.0651V50.3189L409.258 50.6996V51.0803V51.3341V52.159C409.258 52.4763 409.323 52.857 409.388 53.1108C409.452 53.4281 409.647 53.6819 409.842 53.9357C410.036 54.1896 410.361 54.253 410.75 54.253C411.204 54.253 411.594 54.0626 411.853 53.7454C412.113 53.4281 412.308 53.0474 412.308 52.7301V51.3976C412.308 50.763 412.308 50.0651 412.308 49.2402C412.308 48.4153 412.308 47.5904 412.243 46.8924C412.243 46.1309 412.243 45.4964 412.243 44.9253C412.243 44.3542 412.243 44.1004 412.308 44.0369L412.437 43.7197L412.567 43.5293L412.437 43.5928L412.632 43.339C413.021 42.8948 413.411 42.4506 413.93 41.8795C414.384 41.3084 414.773 40.8643 414.968 40.4835L414.903 40.547L416.915 37.8819C417.045 38.1992 417.174 38.5799 417.369 38.9606C417.564 39.3414 417.693 39.6586 417.823 40.0394C417.953 40.3566 418.083 40.6739 418.213 40.9277L418.472 41.4353V41.3719L418.926 42.5775L419.121 43.1486L419.381 43.7197L419.575 44.4177L419.705 44.6715V44.608C419.9 45.1157 420.094 45.6233 420.354 46.1944C420.549 46.702 420.743 47.2731 420.938 47.7807L420.873 47.7173C421.003 48.1614 421.133 48.6056 421.327 48.9229L421.652 49.7478L421.717 49.8112C421.652 49.6843 421.717 49.8112 421.846 50.192C422.041 50.5727 422.171 50.89 422.236 51.0803L422.56 51.8418L422.755 52.5398C422.82 52.9205 423.014 53.3012 423.274 53.7454C423.598 54.1261 423.988 54.3799 424.507 54.3799C424.961 54.3799 425.35 54.253 425.61 54.0626C425.87 53.8088 425.999 53.4916 425.999 52.9839C425.999 52.857 425.87 52.4128 425.545 51.5879C425.286 50.7631 424.961 49.9381 424.572 48.9229C424.182 47.9711 423.858 47.0193 423.469 46.1309C423.079 45.2426 422.885 44.608 422.755 44.3542C422.56 43.8466 422.301 43.2755 422.041 42.641C421.782 41.943 421.522 41.3084 421.327 40.7373Z" fill="white"/>
<path d="M264.422 22.9702L264.617 24.1759C264.747 24.7469 264.747 24.8104 265.006 25.1911C265.266 25.5718 265.785 25.6353 266.11 25.6353C266.629 25.6353 267.083 25.3815 267.408 24.62C267.732 23.8586 267.537 23.922 267.537 22.8433C267.537 21.8281 267.602 22.0819 267.278 21.257C266.953 20.4321 266.499 20.3052 266.045 20.3052C265.59 20.3052 264.682 20.559 264.487 21.3204C264.228 22.0819 264.358 21.955 264.422 22.9702Z" fill="white"/>
<path d="M257.157 22.9702L256.962 24.1759C256.832 24.7469 256.832 24.8104 256.573 25.1911C256.313 25.5718 255.794 25.6353 255.47 25.6353C254.951 25.6353 254.497 25.3815 254.172 24.62C253.848 23.8586 254.042 23.922 254.042 22.8433C254.042 21.8281 253.977 22.0819 254.302 21.257C254.626 20.4321 255.08 20.3052 255.535 20.3052C255.989 20.3052 256.897 20.559 257.092 21.3204C257.352 22.0819 257.157 21.955 257.157 22.9702Z" fill="white"/>
<path d="M369.352 53.0476V52.5399L369.222 51.7785L368.963 51.017L368.768 50.446C368.573 49.9383 368.379 49.3672 368.119 48.6692C367.859 47.9713 367.665 47.2098 367.405 46.4484C367.146 45.6869 366.951 44.9255 366.756 44.164C366.562 43.4026 366.367 42.7046 366.172 42.0701C365.913 41.1182 365.588 40.0395 365.264 38.8339C364.939 37.6283 364.55 36.4861 364.161 35.3439C363.836 34.519 363.577 33.6307 363.382 32.7423C363.122 31.854 362.928 30.9656 362.603 30.0773L361.825 27.4122L361.565 26.6508L361.111 25.8893L360.462 25.2548C360.202 25.0644 359.943 25.001 359.554 25.001C359.229 25.001 358.905 25.0644 358.71 25.2548L358.126 25.8893L357.737 26.6508L357.542 27.4122C357.347 28.4275 357.088 29.5062 356.763 30.7118C356.439 31.9174 356.114 32.9327 355.79 33.8845C355.595 34.3287 355.465 34.7729 355.336 35.217C355.206 35.6612 355.011 36.0419 354.882 36.4861C354.427 37.9456 353.973 39.405 353.584 40.801C353.129 42.197 352.74 43.6564 352.286 45.1158L352.351 45.0524L351.767 47.0194C351.637 47.4002 351.507 47.7809 351.377 48.2251C351.248 48.6692 351.118 49.05 351.053 49.4307C350.923 49.8749 350.793 50.2556 350.729 50.6998C350.664 51.0805 350.534 51.5247 350.339 51.9688L350.404 51.8419C350.209 52.0958 350.145 52.413 350.145 52.7937C350.145 53.2379 350.274 53.6186 350.599 53.8725C350.923 54.1263 351.313 54.3166 351.767 54.3166C352.221 54.3166 352.61 54.1897 352.87 53.8725C353.129 53.5552 353.259 53.2379 353.324 52.9207C353.519 52.2227 353.649 51.5247 353.843 50.8901C354.038 50.1921 354.233 49.5576 354.492 48.8596L355.141 46.8291L355.92 43.8468C356.114 43.466 356.244 43.1488 356.309 42.8315L356.504 42.0066L356.698 41.2452L356.893 40.4837L358.126 36.4227C358.386 35.4709 358.645 34.5825 358.905 33.6307C359.164 32.7423 359.424 31.854 359.748 30.9022V31.0925H359.813L360.138 32.0443C360.397 32.9327 360.657 33.8211 360.916 34.7094C361.176 35.5978 361.5 36.4861 361.76 37.311C361.954 37.9456 362.149 38.5166 362.344 39.1512C362.538 39.7223 362.668 40.3568 362.863 40.9913V41.1182L362.993 41.4355C363.058 41.5624 363.122 41.7528 363.252 42.0701V41.8797C363.382 42.197 363.447 42.5142 363.577 42.8315C363.706 43.1488 363.771 43.4026 363.836 43.7199L364.615 46.7022C364.68 47.1464 364.81 47.5905 365.004 48.1616C365.199 48.6692 365.394 49.2403 365.653 49.8114C365.848 50.1921 365.978 50.5094 366.107 50.8901C366.237 51.2709 366.367 51.715 366.497 52.2227L366.756 52.8572L367.211 53.5552L367.795 54.0628L368.508 54.3166L369.157 54.1263L369.482 53.6821L369.352 53.0476Z" fill="white"/>
</svg>
